#!OML:ASF X:\für Bonn\!DataBase\2005_08_11_Bastian_Final\c3d\Bastian.ASF
:FULLY-SPECIFIED
:DEGREES
53
root 0.634278 18.4265 0.843249 167.954 -0.229574 -174.631
lowerback 7.80211 -2.45874 3.40073
upperback 1.37453 -3.10289 -0.778839
thorax -3.16831 -1.61884 -2.38486
lowerneck 16.5508 -5.33612 -2.36943
upperneck 0.774341 -6.24964 11.2309
head -1.98791 -3.23467 4.19023
rclavicle -8.15017e-015 1.35174e-014
rhumerus 3.48952 20.4149 61.0776
rradius 47.6466
rwrist -104.737
rhand -68.6733 -14.914
rfingers 7.12502
rthumb -40.3627 -40.0296
lclavicle -8.15017e-015 1.35174e-014
lhumerus -326.598 -45.4787 273.079
lradius 37.4078
lwrist 75.1426
lhand -63.4589 26.4858
lfingers 7.12502
lthumb -35.4381 52.9385
rfemur 6.1263 0.402282 24.1144
rtibia 33.5028
rfoot 0.461109 2.33736
rtoes 2.90569
lfemur 10.3143 1.26666 -10.5729
ltibia 26.7675
lfoot 5.23948 -3.26673
ltoes -25.1811
54
root 0.633373 18.4308 0.831938 168.138 0.0698081 -174.661
lowerback 7.73389 -2.51784 3.32756
upperback 1.42815 -3.19309 -0.779891
thorax -3.077 -1.66197 -2.33924
lowerneck 16.9244 -5.17961 -2.19882
upperneck 0.309653 -5.97907 11.2191
head -2.21008 -3.13084 4.16784
rclavicle 2.68359e-014 1.59028e-015
rhumerus 0.644486 23.884 58.9478
rradius 47.6791
rwrist -103.664
rhand -68.4923 -16.6578
rfingers 7.12502
rthumb -40.1925 -41.8255
lclavicle 2.68359e-014 1.59028e-015
lhumerus -329.386 -48.6971 274.518
lradius 37.5822
lwrist 77.9873
lhand -64.5915 29.7163
lfingers 7.12502
lthumb -36.5111 55.9056
rfemur 5.96358 0.569056 24.0658
rtibia 33.4279
rfoot 0.54733 2.52817
rtoes 3.26945
lfemur 10.1941 1.37989 -10.5881
ltibia 26.7988
lfoot 5.31102 -3.0999
ltoes -25.0278
55
root 0.63179 18.4344 0.822083 168.367 0.372008 -174.668
lowerback 7.60998 -2.57148 3.28592
upperback 1.48486 -3.27438 -0.763637
thorax -2.95142 -1.70035 -2.29722
lowerneck 17.2392 -5.01995 -2.09593
upperneck -0.136141 -5.72184 11.2203
head -2.41433 -3.03363 4.1576
rclavicle -1.96797e-014 8.74653e-015
rhumerus -2.36173 28.366 56.4519
rradius 47.7157
rwrist -101.577
rhand -67.2488 -18.6428
rfingers 7.12502
rthumb -39.0215 -44.1567
lclavicle -1.96797e-014 8.74653e-015
lhumerus -332.854 -51.496 276.967
lradius 38.0237
lwrist 80.5322
lhand -65.5478 34.807
lfingers 7.12502
lthumb -37.4157 60.7629
rfemur 5.76356 0.712346 24.0439
rtibia 33.3235
rfoot 0.546348 2.67656
rtoes 3.63532
lfemur 10.0203 1.50642 -10.5844
ltibia 26.8526
lfoot 5.30811 -2.98623
ltoes -25.0104
56
root 0.629288 18.4348 0.813785 168.585 0.670791 -174.668
lowerback 7.49742 -2.73211 3.25053
upperback 1.55111 -3.3141 -0.756026
thorax -2.82454 -1.63816 -2.2756
lowerneck 17.4642 -4.87855 -1.98856
upperneck -0.509461 -5.4933 11.2167
head -2.58127 -2.94525 4.14146
rclavicle -2.78299e-015 -1.43125e-014
rhumerus -5.60973 33.7902 53.3681
rradius 47.5885
rwrist -98.7306
rhand -65.2977 -19.7491
rfingers 7.12502
rthumb -37.1793 -45.767
lclavicle -2.78299e-015 -1.43125e-014
lhumerus -337.158 -53.6665 280.719
lradius 38.3893
lwrist 82.3189
lhand -66.117 40.8321
lfingers 7.12502
lthumb -37.9535 66.644
rfemur 5.62623 0.905938 24.0588
rtibia 33.188
rfoot 0.509095 2.69781
rtoes 4.11673
lfemur 9.84149 1.67948 -10.5601
ltibia 26.9409
lfoot 5.24375 -2.91058
ltoes -25.095
57
root 0.625792 18.4342 0.805842 168.836 0.961992 -174.721
lowerback 7.31253 -2.75316 3.22436
upperback 1.63822 -3.34994 -0.77679
thorax -2.63366 -1.65122 -2.28939
lowerneck 17.6584 -4.73735 -2.00431
upperneck -0.91446 -5.28139 11.3411
head -2.74649 -2.87119 4.18486
rclavicle 6.87795e-014 -5.56597e-015
rhumerus -9.58709 39.423 49.2334
rradius 47.6566
rwrist -95.351
rhand -63.401 -19.4173
rfingers 7.12502
rthumb -35.3832 -45.883
lclavicle 6.87795e-014 -5.56597e-015
lhumerus -342.338 -55.207 285.781
lradius 38.5255
lwrist 83.1115
lhand -66.2439 46.5421
lfingers 7.12502
lthumb -38.0733 72.3213
rfemur 5.50503 1.11989 24.0286
rtibia 33.0213
rfoot 0.415642 2.67097
rtoes 4.5299
lfemur 9.61831 1.81159 -10.6254
ltibia 27.0739
lfoot 5.06532 -2.81985
ltoes -25.1814
58
root 0.621915 18.4319 0.802149 169.088 1.25615 -174.747
lowerback 7.15515 -2.74676 3.24603
upperback 1.7265 -3.34361 -0.785183
thorax -2.45621 -1.6434 -2.3204
lowerneck 17.8052 -4.61996 -2.02938
upperneck -1.33738 -5.10532 11.4562
head -2.90771 -2.81531 4.22771
rclavicle 2.34069e-014 -1.59028e-015
rhumerus -14.4905 44.2087 43.7138
rradius 47.684
rwrist -91.5817
rhand -61.9571 -17.6463
rfingers 7.12502
rthumb -34.0129 -44.4272
lclavicle 2.34069e-014 -1.59028e-015
lhumerus -347.967 -56.4791 291.561
lradius 38.505
lwrist 83.3152
lhand -66.0923 50.7809
lfingers 7.12502
lthumb -37.9301 76.5991
rfemur 5.41583 1.42687 24.0744
rtibia 32.8307
rfoot 0.256489 2.50945
rtoes 5.00666
lfemur 9.36614 1.99298 -10.6454
ltibia 27.2503
lfoot 4.79593 -2.81213
ltoes -25.4621
59
root 0.61406 18.4295 0.808256 169.364 1.64998 -174.828
lowerback 7.07393 -2.67521 3.3039
upperback 1.79998 -3.24592 -0.826229
thorax -2.33426 -1.59112 -2.41039
lowerneck 17.9943 -4.5297 -2.08981
upperneck -1.87543 -4.96214 11.6154
head -3.10689 -2.78426 4.29598
rclavicle 7.65321e-015 1.03368e-014
rhumerus -20.2522 47.2152 36.7963
rradius 47.4684
rwrist -87.4406
rhand -61.0077 -15.4225
rfingers 7.12502
rthumb -33.1106 -42.3993
lclavicle 7.65321e-015 1.03368e-014
lhumerus -353.795 -57.6321 297.802
lradius 38.3204
lwrist 83.0074
lhand -65.8028 52.9488
lfingers 7.12502
lthumb -37.6567 78.8406
rfemur 5.27646 1.73738 24.0421
rtibia 32.6357
rfoot 0.0273564 2.42718
rtoes 5.32446
lfemur 9.06703 2.24764 -10.7444
ltibia 27.466
lfoot 4.47128 -2.74723
ltoes -25.7154
60
root 0.602909 18.4255 0.82647 169.646 2.06833 -174.9
lowerback 7.10265 -2.57869 3.40336
upperback 1.87488 -3.10576 -0.84725
thorax -2.26976 -1.51761 -2.5022
lowerneck 18.1847 -4.43005 -2.22074
upperneck -2.55443 -4.81686 11.7933
head -3.34797 -2.76111 4.38488
rclavicle -3.03644e-014 5.56597e-015
rhumerus -26.2513 48.51 29.218
rradius 47.0469
rwrist -83.8549
rhand -60.5451 -12.9754
rfingers 7.12502
rthumb -32.6707 -40.0445
lclavicle -3.03644e-014 5.56597e-015
lhumerus -359.908 -58.8297 304.533
lradius 38.0865
lwrist 82.3617
lhand -65.5191 52.9795
lfingers 7.12502
lthumb -37.3886 78.9425
rfemur 5.08829 2.02608 24.019
rtibia 32.4468
rfoot -0.336781 2.35892
rtoes 5.30724
lfemur 8.71995 2.47008 -10.8718
ltibia 27.7087
lfoot 4.07209 -2.63032
ltoes -26.1542
61
root 0.597378 18.4175 0.850595 169.907 2.27329 -174.932
lowerback 7.17865 -2.52855 3.44104
upperback 1.95958 -3.02756 -0.829621
thorax -2.22007 -1.47391 -2.51177
lowerneck 18.3538 -4.33746 -2.37092
upperneck -3.31137 -4.68115 11.9742
head -3.60928 -2.74589 4.48025
rclavicle -2.22639e-014 1.35174e-014
rhumerus -31.9456 48.6777 21.6019
rradius 46.5952
rwrist -81.4398
rhand -60.5178 -10.744
rfingers 7.12502
rthumb -32.6446 -37.8185
lclavicle -2.22639e-014 1.35174e-014
lhumerus -366.281 -60.1127 311.841
lradius 37.6969
lwrist 81.1709
lhand -65.1845 51.3148
lfingers 7.12502
lthumb -37.0721 77.3606
rfemur 4.90051 2.11748 24.0649
rtibia 32.2912
rfoot -0.879531 2.20804
rtoes 4.62382
lfemur 8.32754 2.67802 -10.9055
ltibia 27.9409
lfoot 3.74425 -2.67705
ltoes -26.109
62
root 0.597401 18.4049 0.876981 170.176 2.21997 -174.966
lowerback 7.20527 -2.53915 3.35046
upperback 2.08897 -3.03765 -0.754658
thorax -2.09335 -1.47074 -2.38489
lowerneck 18.0058 -4.29105 -2.49211
upperneck -3.87405 -4.64993 12.0032
head -3.72599 -2.75791 4.50948
rclavicle -4.96962e-017 -7.95139e-016
rhumerus -37.1066 48.1085 14.318
rradius 46.2758
rwrist -80.4631
rhand -60.6888 -9.08371
rfingers 7.12502
rthumb -32.8073 -36.1244
lclavicle -4.96962e-017 -7.95139e-016
lhumerus -373.168 -61.2971 320.017
lradius 37.1588
lwrist 79.3584
lhand -64.7252 48.6136
lfingers 7.12502
lthumb -36.6376 74.7709
rfemur 4.70517 2.03736 24.1258
rtibia 32.1592
rfoot -1.57332 1.91925
rtoes 3.72874
lfemur 7.85837 2.89303 -10.8966
ltibia 28.1466
lfoot 3.43734 -3.00437
ltoes -26.32
